HIERARCHY
ROOT Hips
{
	OFFSET	0.00	0.00	0.00
	CHANNELS 6 Xposition Yposition Zposition Zrotation Xrotation Yrotation
	JOINT LeftUpLeg
	{
		OFFSET	 0.126116	-0.065224	 0.014019
		CHANNELS 3 Zrotation Xrotation Yrotation
		JOINT LeftLeg
		{
			OFFSET	 0.000000	 0.569914	 0.000000
			CHANNELS 3 Zrotation Xrotation Yrotation
			JOINT LeftFoot
			{
				OFFSET	 0.000000	 0.544423	 0.000000
				CHANNELS 3 Zrotation Xrotation Yrotation
				JOINT LeftToeBase
				{
					OFFSET	 0.000000	 0.207117	 0.000000
					CHANNELS 3 Zrotation Xrotation Yrotation
					End Site
					{
						OFFSET	 0.000000	 0.207117	 0.000000
					}
				}
			}
		}
	}
	JOINT RightUpLeg
	{
		OFFSET	-0.124023	-0.065224	 0.008373
		CHANNELS 3 Zrotation Xrotation Yrotation
		JOINT RightLeg
		{
			OFFSET	 0.000000	 0.570047	 0.000000
			CHANNELS 3 Zrotation Xrotation Yrotation
			JOINT RightFoot
			{
				OFFSET	 0.000000	 0.544354	 0.000000
				CHANNELS 3 Zrotation Xrotation Yrotation
				JOINT RightToeBase
				{
					OFFSET	 0.000000	 0.207540	 0.000000
					CHANNELS 3 Zrotation Xrotation Yrotation
					End Site
					{
						OFFSET	 0.000000	 0.207540	 0.000000
					}
				}
			}
		}
	}
	JOINT Spine
	{
		OFFSET	 0.000184	 0.117403	 0.007763
		CHANNELS 3 Zrotation Xrotation Yrotation
		JOINT Spine1
		{
			OFFSET	 0.000000	 0.137269	 0.000000
			CHANNELS 3 Zrotation Xrotation Yrotation
			JOINT Spine2
			{
				OFFSET	 0.000000	 0.156879	 0.000000
				CHANNELS 3 Zrotation Xrotation Yrotation
				JOINT LeftShoulder
				{
					OFFSET	 0.080501	 0.160143	 0.002496
					CHANNELS 3 Zrotation Xrotation Yrotation
					JOINT LeftArm
					{
						OFFSET	 0.000000	 0.164363	 0.000000
						CHANNELS 3 Zrotation Xrotation Yrotation
						JOINT LeftForeArm
						{
							OFFSET	 0.000000	 0.364576	 0.000000
							CHANNELS 3 Zrotation Xrotation Yrotation
							JOINT LeftHand
							{
								OFFSET	 0.000000	 0.360812	 0.000000
								CHANNELS 3 Zrotation Xrotation Yrotation
								JOINT LeftHandIndex1
								{
									OFFSET	 0.000000	 0.086006	 0.000000
									CHANNELS 3 Zrotation Xrotation Yrotation
									JOINT LeftHandIndex2
									{
										OFFSET	 0.000000	 0.047237	 0.000000
										CHANNELS 3 Zrotation Xrotation Yrotation
										JOINT LeftHandIndex3
										{
											OFFSET	-0.004284	 0.038165	 0.000551
											CHANNELS 3 Zrotation Xrotation Yrotation
											End Site
											{
												OFFSET	-0.004284	 0.038165	 0.000551
											}
										}
									}
								}
							}
						}
					}
				}
				JOINT Neck
				{
					OFFSET	 0.000000	 0.176489	 0.000000
					CHANNELS 3 Zrotation Xrotation Yrotation
					JOINT Head
					{
						OFFSET	 0.000000	 0.077941	 0.001747
						CHANNELS 3 Zrotation Xrotation Yrotation
						End Site
						{
							OFFSET	 0.000000	 0.077941	 0.001747
						}
					}
				}
				JOINT RightShoulder
				{
					OFFSET	-0.080363	 0.159706	-0.000306
					CHANNELS 3 Zrotation Xrotation Yrotation
					JOINT RightArm
					{
						OFFSET	 0.000000	 0.164196	 0.000000
						CHANNELS 3 Zrotation Xrotation Yrotation
						JOINT RightForeArm
						{
							OFFSET	 0.000000	 0.365611	 0.000000
							CHANNELS 3 Zrotation Xrotation Yrotation
							JOINT RightHand
							{
								OFFSET	 0.000000	 0.360648	 0.000000
								CHANNELS 3 Zrotation Xrotation Yrotation
								JOINT RightHandIndex1
								{
									OFFSET	 0.000000	 0.069977	 0.000000
									CHANNELS 3 Zrotation Xrotation Yrotation
									JOINT RightHandIndex2
									{
										OFFSET	 0.000000	 0.052305	 0.000000
										CHANNELS 3 Zrotation Xrotation Yrotation
										JOINT RightHandIndex3
										{
											OFFSET	 0.009002	 0.042196	 0.000782
											CHANNELS 3 Zrotation Xrotation Yrotation
											End Site
											{
												OFFSET	 0.009002	 0.042196	 0.000782
											}
										}
									}
								}
							}
						}
					}
				}
			}
		}
	}
}
MOTION
Frames:    6
Frame Time: 0.03333334
 0.859968	 1.184261	-0.144665	 9.166306	-3.768866	-42.059590	-176.041400	 15.346580	-23.094820	 5.479092	-46.002220	 8.838917	 73.175250	 49.831540	-96.609340	 1.397980	 23.660680	-7.474003	 135.514700	 23.565470	 65.470660	-5.153635	-46.185650	-5.120816	-50.569690	 47.025290	 58.469830	-1.880338	 32.070710	 3.513798	-1.055491	 7.015334	 26.197380	-5.748636	 1.659015	 4.596095	 7.830506	 8.067375	-10.401270	-104.910600	-9.556083	 98.713440	 34.648650	 46.874470	-26.095200	 30.806310	-0.558406	 19.565980	 42.787300	-28.761870	 58.176650	-5.174595	 15.082850	-6.707830	-7.148722	 8.573759	 2.106017	 4.963066	-4.014628	-0.346955	 15.055950	-8.066236	-7.801733	 1.403750	-3.101409	-48.887570	 88.154180	-3.766761	-91.073240	-16.706500	-9.213703	 88.905870	-18.263900	-1.966913	-12.027740	 15.157810	-74.021360	-2.689125	-2.907369	 16.327270	-3.154349	 14.379530	 23.542100	-6.944294	-8.239867	-2.131385	 0.447455
 0.930152	 1.225242	-0.126621	 5.304417	-4.019056	-39.302540	-178.001700	 10.957250	-20.814700	 4.201512	-38.471590	 5.862959	 68.530880	 49.119210	-87.033760	 1.398019	 23.660650	-7.474025	 151.785900	 25.370700	 42.992740	-4.291099	-40.964060	-3.733031	-47.126350	 48.842770	 56.872380	-1.707504	 30.226620	 3.657175	-0.179877	 6.209220	 12.100700	-5.857591	 0.452911	 3.536906	 6.400376	 6.200814	-12.745870	-108.618200	-18.331180	 101.181300	 37.256730	 43.132790	-29.400810	 38.427010	-0.670153	 23.893160	 34.719940	-34.788660	 52.958270	-6.604907	 15.573160	-6.143211	-7.219385	 8.825440	 2.153606	 4.963066	-4.014628	-0.346955	 11.995620	-8.523780	-11.395830	 1.837567	 0.068509	-47.764500	 90.396260	 0.493711	-91.882320	-13.735450	-8.394125	 75.355120	-21.567910	-2.047074	-17.193780	 63.106710	-67.108800	 42.005340	-2.904556	 16.149480	-3.461995	 14.399740	 24.059180	-7.092019	-8.239867	-2.131385	 0.447455
 0.975557	 1.258707	-0.110694	 1.658957	-4.592989	-39.111690	-178.618300	 4.252211	-20.657080	 2.948732	-29.158850	 2.688960	 62.533820	 48.668520	-77.406940	 1.398039	 23.660630	-7.474036	 161.616400	 19.098660	 28.848590	-2.578062	-27.560550	-1.287766	-37.323180	 45.637350	 47.532950	-1.330408	 28.261040	 3.461553	 0.402664	 5.277359	-3.569856	-3.786719	-0.025908	 2.572067	 2.907712	 3.679049	-13.783930	-110.819000	-25.799580	 102.848300	 39.498970	 42.339070	-32.912630	 43.035830	-0.731388	 26.774520	 20.243920	-34.529110	 44.091080	-7.542177	 15.619560	-5.780019	-7.288210	 9.054236	 2.198432	 4.963066	-4.014628	-0.346955	 8.427039	-9.600927	-13.718590	 0.920500	 2.792051	-45.994390	 92.796310	 4.171577	-92.840140	-12.367790	-7.306135	 64.485470	-23.774680	-2.241052	-20.140040	 58.071910	-52.174470	 42.089040	-2.901852	 15.963010	-3.784560	 14.422580	 24.601380	-7.247722	-8.239867	-2.131385	 0.447455
 0.983193	 1.267816	-0.102638	 1.186353	-4.712273	-41.522150	-179.395200	 1.964919	-23.640010	 2.451200	-24.884830	 0.569519	 60.205170	 49.307450	-73.740690	 1.398039	 23.660610	-7.474038	 163.843700	 15.243520	 23.515120	-1.593458	-17.847740	 0.565554	-33.040840	 42.723520	 41.905870	-1.194744	 27.308400	 3.376483	 0.673727	 4.581917	-18.008240	-0.394384	 1.399928	 1.919302	-1.207695	 1.138582	-13.295000	-111.902500	-30.124990	 102.641000	 40.320030	 42.947220	-32.363510	 45.130460	-0.798341	 27.797660	 3.605278	-18.357090	 34.943620	-7.529360	 16.050660	-5.696051	-7.336812	 9.137698	 2.217469	 4.963066	-4.014628	-0.346955	 5.585639	-10.563910	-13.988820	 0.468941	 3.106496	-44.658140	 92.935780	 7.575251	-93.735180	-11.112020	-5.458077	 59.751990	-24.601120	-2.092313	-21.847660	 38.375290	-36.486280	 34.175770	-2.899144	 15.772080	-4.114760	 14.447720	 25.156350	-7.407967	-8.239867	-2.131385	 0.447455
 0.980450	 1.270033	-0.102794	 0.794999	-4.693540	-42.572810	-179.168800	 1.171410	-24.605190	 2.307685	-23.592550	 0.081821	 59.144760	 49.386970	-72.600230	 1.398019	 23.660610	-7.474029	 164.691100	 14.097430	 22.662660	-1.370355	-15.509050	 1.020912	-32.610500	 41.999740	 40.722790	-1.181986	 27.223780	 3.368082	 1.121354	 4.260093	-28.196280	 0.995764	 1.846968	 1.794417	-3.013348	 0.210483	-13.051960	-111.899700	-30.067640	 102.573800	 42.429870	 42.174100	-33.307480	 41.882920	-0.803721	 26.563730	-5.317056	 0.186607	 32.948220	-7.402405	 16.849160	-5.639277	-7.353802	 8.990608	 2.193827	 4.963066	-4.014628	-0.346955	 5.584990	-10.127830	-12.933300	-0.576729	 1.458416	-45.216620	 92.900760	 8.357993	-94.003970	-10.646920	-4.780792	 58.832740	-23.916870	-1.487582	-22.430980	 23.702560	-25.022360	 28.767600	-2.896041	 15.574340	-4.456775	 14.475650	 25.730910	-7.574814	-8.239867	-2.131385	 0.447455
 0.975835	 1.270167	-0.105941	 0.495573	-4.691917	-43.159580	-178.649500	 0.929238	-25.157980	 2.313484	-23.644450	-0.010027	 58.529980	 49.495440	-72.342060	 1.397996	 23.660620	-7.474018	 165.093400	 14.126750	 22.470930	-1.417991	-16.020540	 1.083518	-33.048170	 42.300420	 40.963000	-1.192740	 27.284970	 3.375964	 1.367863	 4.071277	-32.307800	 1.703876	 2.166346	 1.767519	-3.712391	-0.188089	-12.977430	-111.777500	-29.786960	 102.601000	 43.307330	 41.625840	-33.601360	 37.946990	-0.812891	 23.363290	-10.463950	 12.944900	 32.311870	-7.338050	 17.219420	-5.623530	-7.359669	 8.758174	 2.154441	 4.963066	-4.014628	-0.346955	 6.039110	-9.702497	-11.950960	-1.322824	 0.249332	-46.052090	 92.887200	 8.775599	-94.189990	-10.253030	-4.822770	 58.597170	-21.592630	-0.083268	-23.417520	 16.217270	-16.100230	 30.094230	-2.893237	 15.371600	-4.807288	 14.506340	 26.319830	-7.746941	-8.239867	-2.131385	 0.447455
